<svg width="182" height="28" viewBox="0 0 182 28" fill="none" xmlns="http://www.w3.org/2000/svg">
<path d="M11.4987 21.5C5.97679 21.5 1.5 17.0224 1.5 11.5C1.5 5.97765 5.97679 1.5 11.4987 1.5C17.0206 1.5 21.4974 5.97765 21.4974 11.5C21.4974 17.0224 17.0206 21.5 11.4987 21.5Z" stroke="#C971FF" stroke-width="3"/>
<g clip-path="url(#clip0_720_502)" filter="url(#filter0_d_720_502)">
<path d="M30.2328 18.6931C29.0276 17.814 28.3788 16.5565 28.2866 14.9204H33.0725C33.117 15.4772 33.2855 15.8808 33.5749 16.1373C33.8643 16.3938 34.2395 16.5189 34.6974 16.5189C35.1108 16.5189 35.4479 16.4188 35.715 16.2155C35.9822 16.0122 36.1157 15.7306 36.1157 15.3709C36.1157 14.9048 35.8931 14.545 35.4511 14.2885C35.0091 14.032 34.2904 13.7473 33.2983 13.4314C32.2457 13.0873 31.3935 12.7525 30.7447 12.4303C30.096 12.1081 29.53 11.6358 29.0498 11.0101C28.5728 10.3876 28.3311 9.57425 28.3311 8.56696C28.3311 7.55966 28.5919 6.67124 29.1102 5.94236C29.6286 5.21348 30.3472 4.66291 31.2631 4.28752C32.1789 3.91214 33.2156 3.72444 34.3763 3.72444C36.2525 3.72444 37.7534 4.15614 38.8759 5.01953C39.9985 5.88293 40.5963 7.09668 40.6726 8.65767H35.7945C35.7786 8.17592 35.6292 7.81618 35.3493 7.5753C35.0663 7.33443 34.7038 7.21556 34.2618 7.21556C33.9247 7.21556 33.6512 7.31253 33.4382 7.50961C33.2251 7.70356 33.117 7.98197 33.117 8.34172C33.117 8.64203 33.2347 8.90168 33.4732 9.11753C33.7085 9.3365 34.0042 9.5242 34.354 9.68061C34.7038 9.83702 35.2253 10.0372 35.9122 10.2781C36.9361 10.6253 37.7788 10.9663 38.4435 11.3042C39.1081 11.642 39.6805 12.1144 40.1606 12.7244C40.6408 13.3313 40.8825 14.1008 40.8825 15.033C40.8825 15.9652 40.6408 16.8286 40.1606 17.5794C39.6805 18.3302 38.9841 18.9246 38.0778 19.3594C37.1683 19.7942 36.0966 20.0132 34.8596 20.0132C32.9834 20.0132 31.4412 19.5752 30.2359 18.6962L30.2328 18.6931Z" fill="white"/>
<path d="M50.54 16.0904V19.8505H48.5939C45.3121 19.8505 43.6713 18.252 43.6713 15.0518V10.885H42.0908V7.21243H43.6713V4.14989H48.1805V7.21243H50.5146V10.885H48.1805V15.1206C48.1805 15.4647 48.26 15.715 48.4221 15.8651C48.5811 16.0153 48.8546 16.0904 49.2362 16.0904H50.54Z" fill="white"/>
<path d="M58.9192 7.73484C59.6379 7.31566 60.4074 7.10294 61.231 7.10294V11.8109H59.9718C58.9955 11.8109 58.2705 11.9986 57.7967 12.374C57.3228 12.7494 57.0875 13.4032 57.0875 14.3323V19.8505H52.6006V7.21555H57.0875V9.44599C57.59 8.72649 58.2005 8.15402 58.9192 7.73484Z" fill="white"/>
<path d="M75.0384 14.423H66.5447C66.5892 15.1144 66.7864 15.6274 67.1298 15.9652C67.4733 16.3031 67.9121 16.472 68.4463 16.472C69.1936 16.472 69.7279 16.1404 70.049 15.4804H74.8349C74.6377 16.35 74.2498 17.1289 73.6774 17.8109C73.105 18.496 72.3831 19.0309 71.515 19.4219C70.6437 19.813 69.6833 20.0069 68.6308 20.0069C67.3651 20.0069 66.2394 19.7442 65.2536 19.2186C64.2679 18.6931 63.4983 17.9423 62.9418 16.9663C62.3853 15.9903 62.1055 14.8422 62.1055 13.519C62.1055 12.1957 62.3789 11.0539 62.9291 10.0842C63.4792 9.1144 64.2456 8.36988 65.2314 7.84433C66.2172 7.31879 67.3492 7.05602 68.6308 7.05602C69.9123 7.05602 71.0189 7.31253 71.9952 7.82243C72.9714 8.33234 73.7346 9.06434 74.2848 10.0185C74.8349 10.9726 75.1084 12.0956 75.1084 13.3844C75.1084 13.7285 75.0861 14.0758 75.0384 14.4199V14.423ZM70.5292 12.2833C70.5292 11.7421 70.3448 11.3198 69.9791 11.0101C69.6134 10.7035 69.1555 10.5471 68.6053 10.5471C68.0552 10.5471 67.6068 10.6942 67.2538 10.9851C66.904 11.2791 66.6719 11.7108 66.567 12.2802H70.5292V12.2833Z" fill="white"/>
<path d="M76.9274 10.0998C77.4076 9.12378 78.0658 8.373 78.8958 7.84746C79.729 7.32191 80.6543 7.05914 81.6783 7.05914C82.5623 7.05914 83.3255 7.2312 83.9679 7.57843C84.6102 7.92254 85.1063 8.38864 85.4561 8.97363V7.21556H89.9431V19.8505H85.4561V18.0924C85.1063 18.6774 84.6039 19.1435 83.9552 19.4876C83.3064 19.8317 82.5464 20.0069 81.6783 20.0069C80.6543 20.0069 79.729 19.7442 78.8958 19.2186C78.0627 18.6931 77.4076 17.9392 76.9274 16.9538C76.4472 15.9715 76.2056 14.8266 76.2056 13.519C76.2056 12.2114 76.4472 11.0727 76.9274 10.0967V10.0998ZM84.782 11.6076C84.3304 11.1415 83.7771 10.91 83.122 10.91C82.4669 10.91 81.8945 11.1384 81.4493 11.5982C81.0073 12.0549 80.7847 12.6994 80.7847 13.5252C80.7847 14.3511 81.0073 14.9767 81.4493 15.4522C81.8914 15.9246 82.4479 16.1623 83.122 16.1623C83.7962 16.1623 84.3304 15.9308 84.782 15.4647C85.2335 14.9986 85.4561 14.3542 85.4561 13.5283C85.4561 12.7025 85.2303 12.08 84.782 11.6139V11.6076Z" fill="white"/>
<path d="M113.103 8.54505C114.025 9.50542 114.489 10.8193 114.489 12.4866V19.8505H110.002V13.0716C110.002 12.3959 109.812 11.8704 109.43 11.495C109.048 11.1196 108.53 10.9319 107.872 10.9319C107.213 10.9319 106.695 11.1196 106.314 11.495C105.932 11.8704 105.741 12.3959 105.741 13.0716V19.8505H101.254V13.0716C101.254 12.3959 101.067 11.8704 100.695 11.495C100.319 11.1196 99.8041 10.9319 99.1491 10.9319C98.494 10.9319 97.9502 11.1196 97.5686 11.495C97.187 11.8704 96.9962 12.3959 96.9962 13.0716V19.8505H92.5093V7.21555H96.9962V8.8829C97.3937 8.34172 97.9089 7.91002 98.5417 7.58781C99.1745 7.2656 99.9027 7.10294 100.73 7.10294C101.677 7.10294 102.52 7.30627 103.261 7.70981C104.002 8.11649 104.584 8.68582 105.013 9.42096C105.471 8.72962 106.075 8.16967 106.822 7.74422C107.57 7.31566 108.393 7.10294 109.296 7.10294C110.915 7.10294 112.184 7.58468 113.109 8.54505H113.103Z" fill="white"/>
<path d="M121.425 7.21556V19.8505H116.938V7.21556H121.425Z" fill="white"/>
<path d="M135.919 8.55444C136.791 9.52419 137.223 10.8318 137.223 12.4835V19.8474H132.736V13.0685C132.736 12.349 132.545 11.7797 132.164 11.3667C131.782 10.9538 131.27 10.7473 130.631 10.7473C129.992 10.7473 129.432 10.9538 129.051 11.3667C128.669 11.7797 128.478 12.3459 128.478 13.0685V19.8474H123.991V7.21555H128.478V9.01742C128.876 8.44808 129.41 7.9851 130.081 7.63161C130.752 7.27812 131.525 7.10294 132.393 7.10294C133.875 7.10294 135.048 7.58781 135.919 8.55444Z" fill="white"/>
<path d="M139.684 10.0998C140.164 9.12378 140.826 8.37301 141.665 7.84746C142.505 7.32192 143.437 7.05915 144.457 7.05915C145.281 7.05915 146.019 7.22807 146.667 7.56592C147.316 7.90377 147.825 8.36675 148.191 8.95173V3.18326H152.7V19.8505H148.191V18.0924C147.841 18.6774 147.345 19.1435 146.702 19.4876C146.06 19.8317 145.306 20.0069 144.435 20.0069C143.411 20.0069 142.486 19.7442 141.653 19.2186C140.82 18.6931 140.164 17.9392 139.684 16.9538C139.204 15.9715 138.962 14.8266 138.962 13.519C138.962 12.2114 139.204 11.0727 139.684 10.0967V10.0998ZM147.539 11.6076C147.087 11.1415 146.534 10.91 145.879 10.91C145.224 10.91 144.651 11.1384 144.206 11.5982C143.764 12.0549 143.542 12.6994 143.542 13.5252C143.542 14.3511 143.764 14.9767 144.206 15.4522C144.648 15.9246 145.205 16.1623 145.879 16.1623C146.553 16.1623 147.087 15.9308 147.539 15.4647C147.99 14.9986 148.213 14.3542 148.213 13.5283C148.213 12.7025 147.987 12.08 147.539 11.6139V11.6076Z" fill="white"/>
<path d="M167.468 14.423H158.974C159.018 15.1144 159.216 15.6274 159.559 15.9652C159.902 16.3031 160.341 16.472 160.876 16.472C161.623 16.472 162.157 16.1404 162.478 15.4804H167.264C167.067 16.35 166.679 17.1289 166.107 17.8109C165.534 18.496 164.812 19.0309 163.944 19.4219C163.073 19.813 162.113 20.0069 161.06 20.0069C159.794 20.0069 158.669 19.7442 157.683 19.2186C156.697 18.6931 155.927 17.9423 155.371 16.9663C154.815 15.9903 154.535 14.8422 154.535 13.519C154.535 12.1957 154.808 11.0539 155.358 10.0842C155.908 9.1144 156.675 8.36988 157.661 7.84433C158.646 7.31879 159.778 7.05602 161.06 7.05602C162.341 7.05602 163.448 7.31253 164.424 7.82243C165.401 8.33234 166.164 9.06434 166.714 10.0185C167.264 10.9726 167.538 12.0956 167.538 13.3844C167.538 13.7285 167.515 14.0758 167.468 14.4199V14.423ZM162.958 12.2833C162.958 11.7421 162.774 11.3198 162.408 11.0101C162.043 10.7035 161.585 10.5471 161.035 10.5471C160.484 10.5471 160.036 10.6942 159.683 10.9851C159.333 11.2791 159.104 11.7108 158.996 12.2802H162.958V12.2833Z" fill="white"/>
<path d="M175.688 7.73484C176.403 7.31566 177.176 7.10294 178 7.10294V11.8109H176.74C175.764 11.8109 175.039 11.9986 174.565 12.374C174.091 12.7494 173.856 13.4032 173.856 14.3323V19.8505H169.369V7.21555H173.856V9.44599C174.359 8.72649 174.969 8.15402 175.688 7.73484Z" fill="white"/>
<path d="M121.377 3.18325L119.183 1.93822L116.986 0.690048V3.18325V5.67959L119.183 4.43142L121.377 3.18325Z" fill="#907AD6"/>
</g>
<path d="M17.9382 11.5038L12.8824 8.627L7.81934 5.7502V11.5038V17.2502L12.8824 14.3734L17.9382 11.5038Z" fill="white"/>
<defs>
<filter id="filter0_d_720_502" x="24.2866" y="0.690048" width="157.713" height="27.32" filterUnits="userSpaceOnUse" color-interpolation-filters="sRGB">
<feFlood flood-opacity="0" result="BackgroundImageFix"/>
<feColorMatrix in="SourceAlpha" type="matrix" values="0 0 0 0 0 0 0 0 0 0 0 0 0 0 0 0 0 0 127 0" result="hardAlpha"/>
<feOffset dy="4"/>
<feGaussianBlur stdDeviation="2"/>
<feComposite in2="hardAlpha" operator="out"/>
<feColorMatrix type="matrix" values="0 0 0 0 0 0 0 0 0 0 0 0 0 0 0 0 0 0 0.25 0"/>
<feBlend mode="normal" in2="BackgroundImageFix" result="effect1_dropShadow_720_502"/>
<feBlend mode="normal" in="SourceGraphic" in2="effect1_dropShadow_720_502" result="shape"/>
</filter>
<clipPath id="clip0_720_502">
<rect width="149.713" height="19.32" fill="white" transform="translate(28.2866 0.690048)"/>
</clipPath>
</defs>
</svg>
